<svg width="24" height="25" viewBox="0 0 24 25" fill="none" xmlns="http://www.w3.org/2000/svg">
<path fill-rule="evenodd" clip-rule="evenodd" d="M3 6.58203C3 3.95682 3.02811 3.08203 6.5 3.08203C9.97189 3.08203 10 3.95682 10 6.58203C10 9.20724 10.0111 10.082 6.5 10.082C2.98893 10.082 3 9.20724 3 6.58203Z" stroke="black" stroke-width="1.5" stroke-linecap="round" stroke-linejoin="round"/>
<path fill-rule="evenodd" clip-rule="evenodd" d="M14 6.58203C14 3.95682 14.0281 3.08203 17.5 3.08203C20.9719 3.08203 21 3.95682 21 6.58203C21 9.20724 21.0111 10.082 17.5 10.082C13.9889 10.082 14 9.20724 14 6.58203Z" stroke="black" stroke-width="1.5" stroke-linecap="round" stroke-linejoin="round"/>
<path fill-rule="evenodd" clip-rule="evenodd" d="M3 17.582C3 14.9568 3.02811 14.082 6.5 14.082C9.97189 14.082 10 14.9568 10 17.582C10 20.2072 10.0111 21.082 6.5 21.082C2.98893 21.082 3 20.2072 3 17.582Z" stroke="black" stroke-width="1.5" stroke-linecap="round" stroke-linejoin="round"/>
<path fill-rule="evenodd" clip-rule="evenodd" d="M14 17.582C14 14.9568 14.0281 14.082 17.5 14.082C20.9719 14.082 21 14.9568 21 17.582C21 20.2072 21.0111 21.082 17.5 21.082C13.9889 21.082 14 20.2072 14 17.582Z" stroke="black" stroke-width="1.5" stroke-linecap="round" stroke-linejoin="round"/>
</svg>
