<svg width="24" height="25" viewBox="0 0 24 25" fill="none" xmlns="http://www.w3.org/2000/svg">
<path d="M9.15722 20.8534V17.7867C9.1572 17.0067 9.79312 16.3729 10.581 16.3676H13.4671C14.2587 16.3676 14.9005 17.003 14.9005 17.7867V17.7867V20.863C14.9003 21.5252 15.4343 22.0665 16.103 22.082H18.0271C19.9451 22.082 21.5 20.5427 21.5 18.6439V18.6439V9.91987C21.4898 9.17286 21.1355 8.47138 20.538 8.01506L13.9577 2.76733C12.8049 1.8536 11.1662 1.8536 10.0134 2.76733L3.46203 8.02459C2.86226 8.47905 2.50739 9.1817 2.5 9.92939V18.6439C2.5 20.5427 4.05488 22.082 5.97291 22.082H7.89696C8.58235 22.082 9.13797 21.532 9.13797 20.8534V20.8534" stroke="black" stroke-width="1.5" stroke-linecap="round" stroke-linejoin="round"/>
</svg>
